:SAMPLES-PER-SECOND 30
:FULLY-SPECIFIED
:DEGREES
308
root  -37.9528 34.7494 5.57508 -1.79002 79.6707 -4.25822
RightUpLeg  1.54125 -4.63302 -1.57244
RightLeg  8.17921 -4.03979 -0.315802
RightFoot  0.624393 0.012022 0.124944
RightToes  -24.3978 -0.107307 -0.213776
Spine  -3.53248 -0.0441671 1.45009
Spine1  -6.63297 0.0954711 3.68293
HEad  -90.6058 1.20032 9.20015
LeftShoulder1  -1.94126e-019 -3.10601e-018 -2.51263e-017
LeftArm  8.94477 5.2435 -83.1331
LeftForeArm  164.022 -60.8666 -161.487
LeftHand  -0.917289 0.209555 20.536
RightShoulder  -4.96962e-017 0 -2.36833e-017
RightArm  21.9862 10.0179 83.2392
RightForeArm  178.881 69.7611 154.689
RightHand  0.245208 -6.96413 -19.0247
LeftUpLeg  -0.59542 11.1174 8.02297
LeftLeg  20.7545 17.8361 5.37107
LeftFoot  7.53712 -0.168455 2.71859
LeftToes  -40.621 2.40056e-006 -7.68412e-008
309
root  -38.1335 34.7615 5.69297 -2.63855 78.0633 -5.49516
RightUpLeg  1.10403 -3.4673 -0.92171
RightLeg  7.36685 -3.67468 -0.23489
RightFoot  1.11255 0.0146945 0.0916849
RightToes  -24.1904 -0.106106 -0.213247
Spine  -3.33541 0.0338193 1.62467
Spine1  -6.27153 0.244275 4.01326
HEad  -90.0274 1.18743 9.83184
LeftShoulder1  -1.94126e-019 -3.10601e-018 -2.51263e-017
LeftArm  6.78021 12.9814 -79.9803
LeftForeArm  157.468 -66.6789 -155.651
LeftHand  -0.969811 -1.27255 17.0001
RightShoulder  -4.96962e-017 0 -2.36833e-017
RightArm  24.5215 6.69118 80.4566
RightForeArm  170.32 75.4271 143.117
RightHand  -0.0412918 -5.17753 -14.2095
LeftUpLeg  -1.04978 12.0876 8.50021
LeftLeg  21.262 18.239 5.66024
LeftFoot  7.75495 -0.182905 2.85966
LeftToes  -40.9666 2.40056e-006 -7.68412e-008
310
root  -38.3085 34.7706 5.80713 -3.19112 76.9023 -6.40083
RightUpLeg  0.835918 -3.02963 -0.418369
RightLeg  6.46351 -2.9672 -0.14265
RightFoot  1.64737 0.0163512 0.070785
RightToes  -24.2422 -0.104573 -0.212472
Spine  -3.06411 0.28722 1.68658
Spine1  -5.80885 0.709784 4.12367
HEad  -88.8088 0.314431 10.5754
LeftShoulder1  -1.94126e-019 -3.10601e-018 -2.51263e-017
LeftArm  6.14824 19.8315 -76.5857
LeftForeArm  147.949 -72.7056 -145.345
LeftHand  -0.616624 -1.35097 10.7761
RightShoulder  -4.96962e-017 0 -2.36833e-017
RightArm  25.353 2.53425 77.1466
RightForeArm  153.846 79.5675 123.29
RightHand  -0.0649067 -4.53718 -6.15073
LeftUpLeg  -1.55698 12.6756 8.88064
LeftLeg  21.7331 18.6827 5.95694
LeftFoot  7.97933 -0.198494 3.00698
LeftToes  -41.3194 2.40056e-006 -7.68412e-008
311
root  -38.519 34.7659 5.92677 -4.65045 76.325 -8.42513
RightUpLeg  0.409106 -2.76878 0.385414
RightLeg  5.5884 -2.71431 -0.0889621
RightFoot  2.21243 0.0176986 0.0517665
RightToes  -24.3477 -0.102844 -0.211317
Spine  -2.66614 0.404997 1.61113
Spine1  -5.08916 0.91595 3.97964
HEad  -87.993 -0.414372 11.5971
LeftShoulder1  -1.94126e-019 -3.10601e-018 -2.51263e-017
LeftArm  6.57926 25.0864 -73.0147
LeftForeArm  138.185 -77.4076 -129.639
LeftHand  -0.242227 -0.665424 4.74469
RightShoulder  -4.96962e-017 0 -2.36833e-017
RightArm  24.9038 -1.45429 74.5345
RightForeArm  116.859 81.2905 83.867
RightHand  0.0627379 -1.33502 2.02959
LeftUpLeg  -2.53915 12.7545 9.44093
LeftLeg  22.4366 18.9822 6.29946
LeftFoot  7.83609 -0.195309 3.01265
LeftToes  -41.0698 2.40056e-006 -7.68412e-008
312
root  -38.7368 34.7545 6.03834 -5.8698 76.2324 -10.2706
RightUpLeg  -0.178277 -2.96575 1.09671
RightLeg  5.00324 -2.48184 -0.055962
RightFoot  2.59567 0.0178874 0.0463828
RightToes  -24.2754 -0.101053 -0.209651
Spine  -2.30798 0.445706 1.58108
Spine1  -4.44478 0.982441 3.93143
HEad  -87.6208 -0.990065 11.9985
LeftShoulder1  -1.94126e-019 -3.10601e-018 -2.51263e-017
LeftArm  8.85664 29.0579 -70.0274
LeftForeArm  111.548 -80.6952 -92.7142
LeftHand  -0.152542 -1.6588 2.67277
RightShoulder  -4.96962e-017 0 -2.36833e-017
RightArm  24.6883 -5.63286 71.8339
RightForeArm  82.2145 77.973 44.2028
RightHand  0.232082 1.92528 3.52256
LeftUpLeg  -3.73232 12.7888 9.90329
LeftLeg  23.0853 19.1437 6.58574
LeftFoot  7.74264 -0.193071 3.0141
LeftToes  -41.0665 2.40056e-006 -7.68412e-008
313
root  -38.9662 34.7487 6.15739 -6.47061 76.331 -11.4976
RightUpLeg  -0.966623 -3.00342 1.68949
RightLeg  4.80034 -2.56514 -0.0488045
RightFoot  2.78071 0.0180059 0.0387004
RightToes  -23.8899 -0.0993353 -0.207339
Spine  -1.92777 0.493286 1.51844
Spine1  -3.75678 1.05671 3.81715
HEad  -87.6246 -1.42753 12.1505
LeftShoulder1  -1.94126e-019 -3.10601e-018 -2.51263e-017
LeftArm  12.4531 32.948 -66.9014
LeftForeArm  80.752 -78.8611 -52.4189
LeftHand  -0.406824 -2.81096 5.98676
RightShoulder  -4.96962e-017 0 -2.36833e-017
RightArm  23.3305 -10.4407 69.5123
RightForeArm  71.6204 72.4878 27.0026
RightHand  0.0740547 3.1761 0.76962
LeftUpLeg  -4.8797 12.904 10.2377
LeftLeg  23.4488 19.0614 6.69061
LeftFoot  7.75398 -0.189442 3.00755
LeftToes  -40.795 2.40056e-006 -7.68412e-008
314
root  -39.2244 34.7316 6.25339 -7.77278 76.9324 -13.8543
RightUpLeg  -2.19043 -3.4924 2.43549
RightLeg  4.63404 -2.7159 -0.0438567
RightFoot  2.93918 0.0180792 0.0279772
RightToes  -23.3184 -0.0978254 -0.202953
Spine  -1.71033 0.495215 1.43818
Spine1  -3.37025 1.05652 3.65728
HEad  -87.3052 -2.28669 12.1219
LeftShoulder1  -1.94126e-019 -3.10601e-018 -2.51263e-017
LeftArm  14.2534 37.0206 -64.354
LeftForeArm  67.2945 -75.4471 -36.2859
LeftHand  -0.582144 -4.0119 7.45731
RightShoulder  -4.96962e-017 0 -2.36833e-017
RightArm  18.4925 -16.1995 68.0351
RightForeArm  67.6218 66.94 19.1202
RightHand  -0.155087 2.88692 -2.39749
LeftUpLeg  -6.71316 12.6446 10.588
LeftLeg  23.9867 18.8323 6.80773
LeftFoot  7.57356 -0.179904 2.91283
LeftToes  -40.4614 2.40056e-006 -7.68412e-008
315
root  -39.4693 34.7073 6.36533 -8.89108 77.743 -15.8984
RightUpLeg  -3.19144 -3.81363 3.02719
RightLeg  4.32748 -3.04689 -0.0330333
RightFoot  2.96626 0.0181386 0.0133853
RightToes  -22.6398 -0.0966584 -0.197701
Spine  -1.50145 0.530158 1.28882
Spine1  -2.98208 1.1341 3.33996
HEad  -86.5864 -3.12208 12.0808
LeftShoulder1  -1.94126e-019 -3.10601e-018 -2.51263e-017
LeftArm  14.5961 40.8013 -62.3849
LeftForeArm  59.9576 -72.5923 -29.3213
LeftHand  -0.67181 -5.25258 7.63018
RightShoulder  -4.96962e-017 0 -2.36833e-017
RightArm  10.2223 -21.7403 67.8872
RightForeArm  62.1372 60.5069 14.0988
RightHand  -0.276994 2.00131 -4.52954
LeftUpLeg  -8.30656 12.2079 10.842
LeftLeg  24.2033 18.5035 6.7712
LeftFoot  7.37721 -0.169715 2.79368
LeftToes  -39.7695 2.40056e-006 -7.68412e-008
316
root  -39.696 34.6798 6.48205 -10.8321 78.9762 -18.6451
RightUpLeg  -4.1794 -5.33029 3.58702
RightLeg  4.32606 -2.77679 -0.0299718
RightFoot  2.95247 0.0160226 0.0254294
RightToes  -22.5758 -0.0962784 -0.195357
Spine  -1.3308 0.460894 1.15984
Spine1  -2.6632 1.00765 3.04888
HEad  -84.7203 -4.04781 11.5552
LeftShoulder1  -1.94126e-019 -3.10601e-018 -2.51263e-017
LeftArm  13.7165 44.2693 -61.31
LeftForeArm  56.6791 -70.4642 -25.5075
LeftHand  -0.706778 -5.60375 7.77282
RightShoulder  -4.96962e-017 0 -2.36833e-017
RightArm  -0.449791 -26.4233 68.9132
RightForeArm  55.7611 52.9765 10.4485
RightHand  -0.300041 0.358039 -6.12888
LeftUpLeg  -9.83162 11.5467 11.086
LeftLeg  24.2584 18.124 6.65747
LeftFoot  7.31692 -0.163985 2.71105
LeftToes  -39.5776 2.40056e-006 -7.68412e-008
317
root  -39.9655 34.6589 6.58995 -13.783 80.4457 -22.6139
RightUpLeg  -5.41835 -6.7346 4.22762
RightLeg  4.26924 -2.83878 -0.0278504
RightFoot  2.95322 0.015012 0.0168436
RightToes  -22.1569 -0.0950322 -0.193934
Spine  -1.24706 0.358908 1.07018
Spine1  -2.50792 0.794156 2.83961
HEad  -81.9256 -5.20729 10.5855
LeftShoulder1  -1.94126e-019 -3.10601e-018 -2.51263e-017
LeftArm  11.7237 46.8141 -61.4119
LeftForeArm  54.2978 -68.1688 -22.2623
LeftHand  -0.763611 -5.64013 8.34457
RightShoulder  -4.96962e-017 0 -2.36833e-017
RightArm  -11.9935 -29.6039 70.2801
RightForeArm  49.1053 44.06 7.51339
RightHand  -0.260532 -1.82992 -8.29215
LeftUpLeg  -11.693 10.6429 11.2916
LeftLeg  24.2659 17.6955 6.50896
LeftFoot  7.2225 -0.157589 2.60377
LeftToes  -38.7329 2.40056e-006 -7.68412e-008
318
root  -40.2327 34.6432 6.70818 -18.3085 82.1442 -27.8756
RightUpLeg  -6.40977 -8.39225 4.762
RightLeg  4.26632 -2.89222 -0.0282411
RightFoot  2.90698 0.0135756 0.00912656
RightToes  -21.9569 -0.0933825 -0.192367
Spine  -1.13009 0.136305 0.994585
Spine1  -2.2775 0.313994 2.67993
HEad  -78.6823 -5.72371 9.56739
LeftShoulder1  -1.94126e-019 -3.10601e-018 -2.51263e-017
LeftArm  8.56289 48.3577 -62.6457
LeftForeArm  51.0143 -65.9855 -19.976
LeftHand  -0.731573 -5.46449 8.12913
RightShoulder  -4.96962e-017 0 -2.36833e-017
RightArm  -24.2252 -30.9224 71.7158
RightForeArm  43.3959 32.7259 4.74391
RightHand  -0.147671 -3.93447 -10.6748
LeftUpLeg  -13.2325 9.64591 11.4444
LeftLeg  23.9416 17.2059 6.22786
LeftFoot  7.33575 -0.153096 2.54946
LeftToes  -38.1514 2.40056e-006 -7.68412e-008
319
root  -40.5294 34.5882 6.8406 -26.4103 83.7049 -36.7051
RightUpLeg  -7.88057 -10.0154 5.4635
RightLeg  5.11613 -2.98149 -0.0732549
RightFoot  2.45276 0.0113589 0.00696147
RightToes  -21.6994 -0.0915341 -0.190488
Spine  -0.998294 -0.102164 0.975222
Spine1  -2.01857 -0.244243 2.61015
HEad  -74.7908 -6.29569 8.30039
LeftShoulder1  -1.94126e-019 -3.10601e-018 -2.51263e-017
LeftArm  5.0456 48.9303 -64.6722
LeftForeArm  50.1287 -64.4099 -18.4295
LeftHand  -0.687149 -5.12678 7.8832
RightShoulder  -4.96962e-017 0 -2.36833e-017
RightArm  -36.0455 -30.2581 72.0714
RightForeArm  39.5387 19.1792 2.10039
RightHand  0.0256503 -5.77793 -13.1
LeftUpLeg  -14.9382 8.99424 11.7394
LeftLeg  23.8753 16.3665 5.91355
LeftFoot  7.07735 -0.1326 2.30555
LeftToes  -37.1153 2.40056e-006 -7.68412e-008
320
root  -40.8425 34.4666 6.99217 -41.3178 85.0034 -52.4072
RightUpLeg  -10.1509 -11.7823 6.38156
RightLeg  7.35053 -2.98975 -0.190129
RightFoot  1.33099 0.00607268 0.0126228
RightToes  -21.6433 -0.0896918 -0.18847
Spine  -0.888616 -0.454847 1.16377
Spine1  -1.8037 -1.1711 2.95007
HEad  -71.4973 -6.45245 7.11994
LeftShoulder1  -1.94126e-019 -3.10601e-018 -2.51263e-017
LeftArm  1.9421 48.3163 -67.3686
LeftForeArm  49.4805 -62.7613 -16.9974
LeftHand  -0.701764 -4.81211 8.27417
RightShoulder  -4.96962e-017 0 -2.36833e-017
RightArm  -49.4551 -30.0311 70.7418
RightForeArm  43.3324 10.8446 1.61553
RightHand  0.258803 -7.50259 -15.2949
LeftUpLeg  -17.0486 8.42744 12.1655
LeftLeg  24.3905 15.4186 5.73605
LeftFoot  6.39621 -0.0965488 1.88936
LeftToes  -36.2722 2.40056e-006 -7.68412e-008
